<svg width="112" height="16" viewBox="0 0 112 16" fill="none" xmlns="http://www.w3.org/2000/svg">
<path d="M7.99978 12.1734L3.29778 14.8054L4.34778 9.52004L0.391113 5.86137L5.74245 5.22671L7.99978 0.333374L10.2571 5.22671L15.6084 5.86137L11.6518 9.52004L12.7018 14.8054L7.99978 12.1734Z" fill="#FF6600"/>
<path d="M31.9998 12.1734L27.2978 14.8054L28.3478 9.52004L24.3911 5.86137L29.7424 5.22671L31.9998 0.333374L34.2571 5.22671L39.6084 5.86137L35.6518 9.52004L36.7018 14.8054L31.9998 12.1734Z" fill="#FF6600"/>
<path d="M55.9998 12.1734L51.2978 14.8054L52.3478 9.52004L48.3911 5.86137L53.7424 5.22671L55.9998 0.333374L58.2571 5.22671L63.6084 5.86137L59.6518 9.52004L60.7018 14.8054L55.9998 12.1734Z" fill="#FF6600"/>
<path d="M79.9998 12.1734L75.2978 14.8054L76.3478 9.52004L72.3911 5.86137L77.7424 5.22671L79.9998 0.333374L82.2571 5.22671L87.6084 5.86137L83.6518 9.52004L84.7018 14.8054L79.9998 12.1734Z" fill="#FF6600"/>
<path d="M104 12.1734L99.2978 14.8054L100.348 9.52004L96.3911 5.86137L101.742 5.22671L104 0.333374L106.257 5.22671L111.608 5.86137L107.652 9.52004L108.702 14.8054L104 12.1734Z" fill="#FF6600"/>
</svg>
