<svg width="32" height="31" viewBox="0 0 32 31" fill="none" xmlns="http://www.w3.org/2000/svg">
<path d="M32 15.5C32 6.95278 24.8229 -3.13719e-07 16 -6.99382e-07C7.17706 -1.08505e-06 -3.03916e-07 6.95278 -6.77527e-07 15.5C-1.05114e-06 24.0472 7.17831 31 16 31C24.8217 31 32 24.0472 32 15.5ZM2.47869 15.5C2.47869 8.27827 8.54406 2.40123 16 2.40123C23.4559 2.40123 29.5213 8.27827 29.5213 15.5C29.5213 22.7229 23.4559 28.5988 16 28.5988C8.54406 28.5988 2.47869 22.7217 2.47869 15.5Z" fill="#185CFF"/>
<path d="M14.2898 22.3554L20.4865 16.3523C20.9674 15.8841 20.9674 15.1277 20.4865 14.6594L14.2898 8.65634C13.8263 8.27096 13.1409 8.27096 12.6774 8.65634C12.1581 9.08738 12.0974 9.84615 12.5423 10.3492L17.8591 15.4999L12.5423 20.6625C12.0614 21.1308 12.0614 21.8872 12.5423 22.3554C13.0256 22.8213 13.8064 22.8213 14.2898 22.3554Z" fill="#185CFF"/>
</svg>
