<svg width="32" height="33" viewBox="0 0 32 33" fill="none" xmlns="http://www.w3.org/2000/svg">
<path d="M1.90798e-07 16.833C8.55856e-08 25.6559 7.17706 32.833 16 32.833C24.8229 32.833 32 25.6559 32 16.833C32 8.01007 24.8217 0.833008 16 0.833008C7.17831 0.833008 2.96011e-07 8.01007 1.90798e-07 16.833ZM29.5213 16.833C29.5213 24.2877 23.4559 30.3543 16 30.3543C8.54406 30.3543 2.47869 24.2877 2.47869 16.833C2.47869 9.37707 8.54406 3.3117 16 3.3117C23.4559 3.3117 29.5213 9.37832 29.5213 16.833Z" fill="#185CFF"/>
<path d="M17.7102 9.75644L11.5135 15.9532C11.0326 16.4366 11.0326 17.2173 11.5135 17.7007L17.7102 23.8974C18.1737 24.2953 18.8591 24.2953 19.3226 23.8974C19.8419 23.4525 19.9026 22.6693 19.4577 22.1499L14.1409 16.8331L19.4577 11.5039C19.9386 11.0206 19.9386 10.2398 19.4577 9.75644C18.9744 9.27557 18.1936 9.27557 17.7102 9.75644Z" fill="#185CFF"/>
</svg>
