<svg width="21" height="21" viewBox="0 0 21 21" fill="none" xmlns="http://www.w3.org/2000/svg">
<path d="M10.4616 1.45361C8.6486 1.45361 6.87632 1.99123 5.36887 2.99848C3.86141 4.00572 2.6865 5.43736 1.9927 7.11235C1.29889 8.78734 1.11736 10.6304 1.47106 12.4086C1.82476 14.1868 2.6978 15.8201 3.97978 17.1021C5.26176 18.3841 6.89511 19.2571 8.67326 19.6108C10.4514 19.9645 12.2945 19.783 13.9695 19.0892C15.6445 18.3954 17.0762 17.2205 18.0834 15.713C19.0906 14.2056 19.6283 12.4333 19.6283 10.6203C19.6254 8.19001 18.6587 5.8601 16.9402 4.14163C15.2218 2.42317 12.8919 1.45648 10.4616 1.45361ZM10.4616 18.1203C8.97823 18.1203 7.52818 17.6804 6.29482 16.8563C5.06145 16.0322 4.10015 14.8609 3.5325 13.4904C2.96484 12.12 2.81631 10.612 3.1057 9.1571C3.39509 7.70225 4.1094 6.36587 5.15829 5.31698C6.20719 4.26809 7.54356 3.55378 8.99841 3.26439C10.4533 2.975 11.9613 3.12353 13.3317 3.69118C14.7022 4.25884 15.8735 5.22013 16.6976 6.4535C17.5217 7.68687 17.9616 9.13692 17.9616 10.6203C17.9594 12.6087 17.1685 14.5151 15.7625 15.9211C14.3564 17.3272 12.45 18.1181 10.4616 18.1203Z" fill="#009E69"/>
<path d="M14.0644 7.92333L9.65275 11.9675L7.71692 10.0317C7.64005 9.95207 7.54809 9.88859 7.44642 9.84491C7.34475 9.80124 7.2354 9.77825 7.12475 9.77729C7.0141 9.77633 6.90437 9.79741 6.80196 9.83931C6.69954 9.88121 6.6065 9.94309 6.52826 10.0213C6.45001 10.0996 6.38814 10.1926 6.34623 10.295C6.30433 10.3974 6.28325 10.5072 6.28421 10.6178C6.28517 10.7285 6.30816 10.8378 6.35184 10.9395C6.39551 11.0412 6.45899 11.1331 6.53859 11.21L9.03859 13.71C9.19045 13.8619 9.39509 13.9493 9.60982 13.9539C9.82455 13.9586 10.0328 13.8802 10.1911 13.735L15.1911 9.15166C15.354 9.00226 15.4508 8.79426 15.4604 8.57344C15.4699 8.35262 15.3913 8.13705 15.2419 7.97416C15.0925 7.81128 14.8845 7.71441 14.6637 7.70488C14.4429 7.69534 14.2273 7.77392 14.0644 7.92333Z" fill="#009E69"/>
</svg>
