<svg width="21" height="18" viewBox="0 0 21 18" fill="none" xmlns="http://www.w3.org/2000/svg">
<path d="M20.383 2.65593C19.6196 2.99362 18.81 3.2154 17.981 3.31393C18.8548 2.79136 19.5087 1.96894 19.821 0.999927C19.001 1.48793 18.102 1.82993 17.165 2.01493C16.5356 1.34151 15.7014 0.89489 14.792 0.744511C13.8826 0.594133 12.9489 0.748418 12.1363 1.18338C11.3236 1.61834 10.6774 2.30961 10.2981 3.14972C9.91884 3.98983 9.82775 4.93171 10.039 5.82893C8.37611 5.74558 6.74933 5.31345 5.26429 4.56059C3.77924 3.80773 2.46913 2.75097 1.419 1.45893C1.04729 2.09738 0.851955 2.82315 0.853 3.56193C0.853 5.01193 1.591 6.29293 2.713 7.04293C2.04901 7.02202 1.39963 6.84271 0.819 6.51993V6.57193C0.819201 7.53763 1.15337 8.47354 1.76485 9.22099C2.37633 9.96843 3.22748 10.4814 4.174 10.6729C3.55762 10.84 2.91131 10.8646 2.284 10.7449C2.55087 11.5762 3.07101 12.3031 3.77159 12.824C4.47218 13.3449 5.31813 13.6337 6.191 13.6499C5.32348 14.3313 4.33018 14.8349 3.26788 15.1321C2.20558 15.4293 1.09513 15.5142 0 15.3819C1.9117 16.6114 4.1371 17.2641 6.41 17.2619C14.103 17.2619 18.31 10.8889 18.31 5.36193C18.31 5.18193 18.305 4.99993 18.297 4.82193C19.1159 4.23009 19.8226 3.49695 20.384 2.65693L20.383 2.65593Z" fill="#8A95AD"/>
</svg>
